Coordinates
version=1
nRows=5
nColumns=63
inDegrees=yes

Units are S.I. units (second, meters, Newtons, ...)
If the header above contains a line with 'inDegrees', this indicates whether rotational values are in degrees (yes) or radians (no).

endheader
time	pelvis_tilt	pelvis_list	pelvis_rotation	pelvis_tx	pelvis_ty	pelvis_tz	hip_flexion_r	hip_adduction_r	hip_rotation_r	knee_angle_r	knee_angle_r_beta	ankle_angle_r	subtalar_angle_r	mtp_angle_r	hip_flexion_l	hip_adduction_l	hip_rotation_l	knee_angle_l	knee_angle_l_beta	ankle_angle_l	subtalar_angle_l	mtp_angle_l	L5_S1_Flex_Ext	L5_S1_Lat_Bending	L5_S1_axial_rotation	L4_L5_Flex_Ext	L4_L5_Lat_Bending	L4_L5_axial_rotation	L3_L4_Flex_Ext	L3_L4_Lat_Bending	L3_L4_axial_rotation	L2_L3_Flex_Ext	L2_L3_Lat_Bending	L2_L3_axial_rotation	L1_L2_Flex_Ext	L1_L2_Lat_Bending	L1_L2_axial_rotation	L1_T12_Flex_Ext	L1_T12_Lat_Bending	L1_T12_axial_rotation	Abs_r3	Abs_r2	Abs_r1	Abs_t1	Abs_t2	neck_flexion	neck_bending	neck_rotation	arm_flex_r	arm_add_r	arm_rot_r	elbow_flex_r	pro_sup_r	wrist_flex_r	wrist_dev_r	arm_flex_l	arm_add_l	arm_rot_l	elbow_flex_l	pro_sup_l	wrist_flex_l	wrist_dev_l
      2.67796610	     -6.46368913	     -4.62008406	     89.51648499	      0.13798131	      1.01678791	      0.14768374	     32.04313783	    -13.32038149	     -2.53448266	     53.49119341	      0.93359745	     42.54968871	      9.22388145	      0.00000000	     25.68985547	      1.55337675	    -15.74532793	     44.37497440	      0.77448941	     34.95912466	     16.68030592	      0.00000000	     -0.28422190	      1.35802449	      0.52102118	     -0.52782848	      1.80617258	      0.55358501	     -0.46694815	      3.30190075	      0.55358501	     -0.32483720	      3.30190075	      0.45589354	     -0.26392845	      2.76928355	      0.42332971	     -0.16240439	      2.10357994	      0.39076589	     -2.03016858	     15.36224467	      2.89776352	      0.00000000	      0.00000000	     12.24336091	    -15.80706791	     10.50536701	     11.03289956	    -29.33281547	    187.14840970	      1.26801835	     11.82003508	    -31.82876688	    -12.63993119	     18.53776294	    -33.13661934	     64.88114962	     48.33624388	     66.35665685	     17.06067554	    -11.88361983
      2.69491525	     -6.07855567	     -4.63732154	     89.28199137	      0.13988102	      1.01955578	      0.14666268	     31.25785616	    -12.86822814	     -3.23720120	     52.18115278	      0.91073292	     42.25160520	      9.65169381	      0.00000000	     24.97374988	      1.03947746	    -16.10598646	     43.22427402	      0.75440590	     34.97054999	     16.99145279	      0.00000000	     -0.28778653	      1.35710452	      0.61786877	     -0.53444837	      1.80494901	      0.65648557	     -0.47280450	      3.29966393	      0.65648557	     -0.32891123	      3.29966393	      0.54063518	     -0.26723858	      2.76740754	      0.50201838	     -0.16444123	      2.10215490	      0.46340158	     -2.05563043	     15.35183774	      3.43640076	      0.00000000	      0.00000000	     12.12231770	    -16.26811095	      9.90092077	     10.42417951	    -29.57112136	    184.62524589	      1.37233984	     10.27098380	    -28.82286885	    -13.79104307	     18.24281305	    -33.26240681	     62.03375148	     48.58842467	     70.37341640	     18.47757268	    -11.28112386
      2.71186441	     -5.83089084	     -4.66159002	     88.93503567	      0.14195513	      1.02254077	      0.14540427	     30.34122625	    -12.52853872	     -3.87203839	     50.76767028	      0.88606300	     41.54278349	      9.85896116	      0.00000000	     24.13819643	      0.69237861	    -16.57408142	     41.78704439	      0.72932151	     34.89239394	     17.21380943	      0.00000000	     -0.29364975	      1.33060996	      0.75647417	     -0.54533694	      1.76971125	      0.80375380	     -0.48243717	      3.23524506	      0.80375380	     -0.33561229	      3.23524506	      0.66191490	     -0.27268315	      2.71337983	      0.61463526	     -0.16779146	      2.06111483	      0.56735563	     -2.09751077	     15.05212599	      4.20728239	      0.00000000	      0.00000000	     11.84356184	    -16.70414637	      9.02239623	      9.98284115	    -29.82210763	    180.93073215	      1.49969093	      7.81826213	    -24.02999349	    -15.59029813	     18.54370381	    -33.65055946	     60.90624512	     48.93650096	     71.30920383	     19.66342584	    -10.38051642
      2.72881356	     -5.69232578	     -4.55537462	     88.44694485	      0.14406494	      1.02596204	      0.14372073	     29.16699403	    -12.24712051	     -4.39271930	     49.21314926	      0.85893149	     40.44963993	      9.75770280	      0.00000000	     22.96139241	      0.51106904	    -17.19277953	     39.97880202	      0.69776173	     34.63844309	     17.41102825	      0.00000000	     -0.31965902	      1.28744227	      0.89391919	     -0.59363876	      1.71229822	      0.94978914	     -0.52516780	      3.13028713	      0.94978914	     -0.36533829	      3.13028713	      0.78217930	     -0.29683536	      2.62535227	      0.72630935	     -0.18265316	      1.99424807	      0.67043940	     -2.28329239	     14.56380442	      4.97171038	      0.00000000	      0.00000000	     11.26749156	    -17.08559593	      8.23212652	      9.93217357	    -30.07655963	    176.54051990	      1.59642077	      5.18072480	    -17.95197647	    -17.35572253	     18.92624261	    -34.13020077	     60.32938742	     49.15445248	     71.41132244	     20.65441340	     -9.56712600
      2.74576271	     -5.55157453	     -4.90907153	     87.94657489	      0.14657315	      1.02799225	      0.14192539	     28.55252357	    -11.92611351	     -4.87137640	     47.85352017	      0.83520149	     39.28683771	      9.53233779	      0.00000000	     22.41985641	      0.25417898	    -17.81106126	     38.50858432	      0.67210159	     34.25861024	     17.58091613	      0.00000000	     -0.26605743	      1.22312780	      1.04695132	     -0.49409526	      1.62675997	      1.11238577	     -0.43710576	      2.97391293	      1.11238577	     -0.30407704	      2.97391293	      0.91608240	     -0.24706093	      2.49420221	      0.85064794	     -0.15202522	      1.89462496	      0.78521349	     -1.90042165	     13.83626628	      5.82282913	      0.00000000	      0.00000000	     10.88236069	    -16.95684933	      7.20257215	      9.77795271	    -30.28959600	    167.84536127	      1.55197331	      4.56979715	     -9.66249509	    -19.66004332	     19.60908485	    -35.11334178	     60.99103438	     49.79870195	     70.94430511	     21.87383673	     -8.80947641
